HIERARCHY
ROOT Hips
{
	OFFSET 0.00000 0.00000 0.00000
	CHANNELS 6 Xposition Yposition Zposition Zrotation Yrotation Xrotation 
	JOINT LHipJoint
	{
		OFFSET 0 0 0
		CHANNELS 3 Zrotation Yrotation Xrotation
		JOINT LeftUpLeg
		{
			OFFSET 1.30186 -1.90722 0.65024
			CHANNELS 3 Zrotation Yrotation Xrotation
			JOINT LeftLeg
			{
				OFFSET 2.56413 -7.04489 0.00000
				CHANNELS 3 Zrotation Yrotation Xrotation
				JOINT LeftFoot
				{
					OFFSET 2.79321 -7.67428 0.00000
					CHANNELS 3 Zrotation Yrotation Xrotation
					JOINT LeftToeBase
					{
						OFFSET 0.15723 -0.43198 2.08537
						CHANNELS 3 Zrotation Yrotation Xrotation
						End Site
						{
							OFFSET 0.00000 -0.00000 1.07411
						}
					}
				}
			}
		}
	}
	JOINT RHipJoint
	{
		OFFSET 0 0 0
		CHANNELS 3 Zrotation Yrotation Xrotation
		JOINT RightUpLeg
		{
			OFFSET -1.28627 -1.90723 0.65024
			CHANNELS 3 Zrotation Yrotation Xrotation
			JOINT RightLeg
			{
				OFFSET -2.56567 -7.04913 0.00000
				CHANNELS 3 Zrotation Yrotation Xrotation
				JOINT RightFoot
				{
					OFFSET -2.75597 -7.57198 0.00000
					CHANNELS 3 Zrotation Yrotation Xrotation
					JOINT RightToeBase
					{
						OFFSET -0.17500 -0.48081 2.22901
						CHANNELS 3 Zrotation Yrotation Xrotation
						End Site
						{
							OFFSET -0.00000 -0.00000 1.14762
						}
					}
				}
			}
		}
	}
	JOINT LowerBack
	{
		OFFSET 0 0 0
		CHANNELS 3 Zrotation Yrotation Xrotation
		JOINT Spine
		{
			OFFSET -0.04522 2.07467 -0.16566
			CHANNELS 3 Zrotation Yrotation Xrotation
			JOINT Spine1
			{
				OFFSET -0.01178 2.08825 -0.05393
				CHANNELS 3 Zrotation Yrotation Xrotation
				JOINT Neck
				{
					OFFSET 0 0 0
					CHANNELS 3 Zrotation Yrotation Xrotation
					JOINT Neck1
					{
						OFFSET -0.05182 1.80489 0.16014
						CHANNELS 3 Zrotation Yrotation Xrotation
						JOINT Head
						{
							OFFSET 0.14739 1.78840 -0.33342
							CHANNELS 3 Zrotation Yrotation Xrotation
							End Site
							{
								OFFSET 0.04364 1.83899 -0.13460
							}
						}
					}
				}
				JOINT LeftShoulder
				{
					OFFSET 0 0 0
					CHANNELS 3 Zrotation Yrotation Xrotation
					JOINT LeftArm
					{
						OFFSET 3.01264 1.29090 -0.06579
						CHANNELS 3 Zrotation Yrotation Xrotation
						JOINT LeftForeArm
						{
							OFFSET 5.55680 -0.00000 0.00000
							CHANNELS 3 Zrotation Yrotation Xrotation
							JOINT LeftHand
							{
								OFFSET 3.63979 -0.00000 -0.00000
								CHANNELS 3 Zrotation Yrotation Xrotation
								JOINT LeftFingerBase
								{
									OFFSET 0 0 0
									CHANNELS 3 Zrotation Yrotation Xrotation
									JOINT LeftHandIndex1
									{
										OFFSET 0.56942 -0.00000 -0.00000
										CHANNELS 3 Zrotation Yrotation Xrotation
										End Site
										{
											OFFSET 0.45908 -0.00000 -0.00000
										}
									}
								}
								JOINT LThumb
								{
									OFFSET 0 0 0
									CHANNELS 3 Zrotation Yrotation Xrotation
									End Site
									{
										OFFSET 0.46609 -0.00000 0.46609
									}
								}
							}
						}
					}
				}
				JOINT RightShoulder
				{
					OFFSET 0 0 0
					CHANNELS 3 Zrotation Yrotation Xrotation
					JOINT RightArm
					{
						OFFSET -3.15796 1.37283 -0.36748
						CHANNELS 3 Zrotation Yrotation Xrotation
						JOINT RightForeArm
						{
							OFFSET -5.34339 -0.00000 0.00000
							CHANNELS 3 Zrotation Yrotation Xrotation
							JOINT RightHand
							{
								OFFSET -3.65101 -0.00000 -0.00000
								CHANNELS 3 Zrotation Yrotation Xrotation
								JOINT RightFingerBase
								{
									OFFSET 0 0 0
									CHANNELS 3 Zrotation Yrotation Xrotation
									JOINT RightHandIndex1
									{
										OFFSET -0.69425 -0.00000 -0.00000
										CHANNELS 3 Zrotation Yrotation Xrotation
										End Site
										{
											OFFSET -0.55972 -0.00000 -0.00000
										}
									}
								}
								JOINT RThumb
								{
									OFFSET 0 0 0
									CHANNELS 3 Zrotation Yrotation Xrotation
									End Site
									{
										OFFSET -0.56827 -0.00000 0.56827
									}
								}
							}
						}
					}
				}
			}
		}
	}
}
MOTION
Frames: 15
Frame Time: .0083333
9.7314 17.3307 -13.4905 -12.3971 42.7215 -11.5614 0.0000 0.0000 0.0000 -16.3948 -9.9957 -29.3920 5.5754 14.0039 43.2530 0.4234 0.7495 -12.5857 0.6427 5.1287 14.2759 0.0000 0.0000 0.0000 17.0451 -3.6622 -25.3426 -5.5275 -13.9543 43.0546 0.1148 11.5278 -6.2960 -0.0001 -0.0786 0.2160 -5.1369 6.3379 11.1786 -2.3720 7.9797 5.7134 -0.5457 3.9741 -0.5743 -18.8174 -19.9699 -0.1632 28.2843 -30.1840 6.5463 8.1268 -14.3586 9.6635 -0.0000 -0.0000 0.0000 -63.1717 17.1764 -2.5524 26.3840 -37.5853 -9.1208 -0.0000 0.0000 -5.9666 9.7169 15.8515 2.6779 -7.1250 0.0000 -0.0000 -16.7247 45.3633 -0.1543 -0.0000 -0.0000 0.0000 33.7389 24.5670 -56.9495 -6.8413 11.6578 -0.6992 0.0000 0.0000 11.3301 -20.4475 15.7902 -5.7932 7.1250 -0.0000 -0.0000 4.8499 -13.2300 3.6245
9.7492 17.3056 -13.4304 -11.4234 41.9448 -10.9977 0.0000 0.0000 0.0000 -16.6320 -10.6321 -29.1188 5.8354 14.2669 44.3174 0.5066 1.2249 -13.9438 0.7263 5.4455 15.1838 0.0000 0.0000 0.0000 15.9529 -3.8083 -26.8259 -6.1281 -14.5513 45.4935 0.3549 13.1590 -3.6661 -0.0198 -0.9095 2.4998 -5.5124 6.4517 11.4656 -2.6019 8.0728 5.7926 -0.6209 4.0182 -0.6607 -18.5447 -19.8579 -0.3044 28.2513 -29.8252 5.8333 8.1603 -14.2172 9.3046 0.0000 0.0000 0.0000 -62.9034 17.4480 -2.1898 26.0700 -37.2777 -8.9300 -0.0000 0.0000 -6.0283 13.6160 18.5287 4.4016 -7.1250 0.0000 -0.0000 -14.0919 48.4880 -1.2351 0.0000 0.0000 0.0000 33.4664 25.5078 -59.8247 -6.9238 11.7938 -0.7160 0.0000 0.0000 14.0609 -19.9248 15.7240 -5.6104 7.1250 -0.0000 -0.0000 5.1979 -13.3590 3.8726
9.7648 17.2748 -13.3686 -10.4881 41.2274 -10.4943 0.0000 0.0000 0.0000 -16.9504 -10.9724 -28.9495 6.0415 14.4684 45.1479 0.5384 1.3085 -14.3956 0.6675 5.2247 14.5507 0.0000 0.0000 0.0000 14.7138 -3.6181 -28.2601 -6.7721 -15.1370 48.0072 0.5608 13.9094 0.2253 -0.2295 -3.0837 8.5119 -5.9016 6.5158 11.7512 -2.7838 8.0993 5.9022 -0.6295 4.0276 -0.7206 -18.5129 -19.7037 -0.6202 28.3209 -29.4543 5.3197 8.2410 -14.0435 9.1071 -0.0000 0.0000 0.0000 -62.4345 17.7688 -1.8502 25.6332 -36.8442 -8.6667 -0.0000 0.0000 -6.3393 12.8558 19.8464 4.4304 -7.1250 0.0000 -0.0000 -15.3038 49.6692 -1.7993 -0.0000 0.0000 0.0000 32.8125 26.5383 -63.0295 -6.6694 11.3739 -0.6649 0.0000 0.0000 17.0743 -19.7967 15.8532 -5.6159 7.1250 -0.0000 -0.0000 5.2898 -13.2380 3.9552
9.7793 17.2542 -13.2950 -9.5739 40.5607 -10.2917 0.0000 0.0000 0.0000 -17.3731 -10.8374 -28.5132 6.2039 14.6231 45.7946 0.5694 1.0122 -14.6560 0.5358 4.6903 13.0274 0.0000 0.0000 0.0000 13.3915 -3.2900 -29.1795 -7.3852 -15.6479 50.3165 0.6907 14.6548 3.4216 -0.1895 -2.8035 7.7323 -6.3049 6.6512 12.2920 -2.9671 8.1971 6.0616 -0.6706 4.0743 -0.8670 -18.3715 -19.6731 -1.0210 28.2175 -29.2526 4.9282 8.1976 -13.9363 8.9534 -0.0000 0.0000 0.0000 -61.8027 17.9544 -1.2999 25.1812 -36.3886 -8.3972 -0.0000 0.0000 -6.6605 11.9933 19.9545 4.1466 -7.1250 0.0000 -0.0000 -16.1606 49.6437 -1.8944 -0.0000 0.0000 0.0000 32.3334 27.2850 -65.5537 -6.4662 11.0374 -0.6254 0.0000 0.0000 19.6541 -21.5421 16.6106 -6.4385 7.1250 -0.0000 -0.0000 4.1637 -12.2334 3.1955
9.7930 17.2270 -13.2162 -8.7681 39.9327 -10.2868 0.0000 0.0000 0.0000 -17.7453 -10.5837 -27.9398 6.3454 14.7550 46.3529 0.6229 0.5367 -15.1150 0.6469 5.1452 14.3232 0.0000 0.0000 0.0000 12.1100 -2.9336 -29.7677 -7.9246 -16.0635 52.2908 0.8354 15.9476 5.2289 -0.0004 -0.1248 0.3429 -6.6088 6.7966 13.0171 -3.1254 8.2988 6.2446 -0.7626 4.1258 -1.0760 -18.2568 -19.7204 -1.2606 28.1334 -29.1406 4.3348 8.1552 -13.8969 8.7358 0.0000 0.0000 0.0000 -61.7388 17.5133 -1.5939 24.5788 -35.7704 -8.0424 -0.0000 0.0000 -6.0210 12.6248 19.5804 4.2927 -7.1250 0.0000 -0.0000 -15.4167 49.3747 -1.6994 0.0000 0.0000 0.0000 31.9456 27.7216 -66.4645 -6.4525 11.0148 -0.6228 0.0000 0.0000 20.7546 -21.3932 16.9243 -6.5061 7.1250 -0.0000 -0.0000 4.2821 -11.9207 3.3148
9.8020 17.1982 -13.1346 -7.9397 39.2742 -10.0947 0.0000 0.0000 0.0000 -18.1444 -10.0686 -27.6645 6.4717 14.8704 46.8468 0.6749 0.3710 -15.6625 0.6457 5.1405 14.3098 0.0000 0.0000 0.0000 10.7852 -2.3183 -30.4052 -8.3708 -16.3853 53.8875 0.9321 16.8303 7.4733 -0.0554 1.5195 -4.1795 -7.0594 6.9711 13.5698 -3.2148 8.4222 6.3242 -0.6992 4.1842 -1.3320 -18.1665 -19.7254 -1.2574 27.9147 -28.9500 3.6564 8.1215 -13.8518 8.4080 0.0000 -0.0000 0.0000 -61.6301 17.0487 -1.6166 23.7778 -34.9284 -7.5789 -0.0000 0.0000 -5.0933 12.6036 19.4443 4.2568 -7.1250 0.0000 -0.0000 -15.3834 49.2387 -1.6431 0.0000 -0.0000 0.0000 31.4910 27.9263 -66.8959 -6.3948 10.9190 -0.6118 0.0000 0.0000 21.6336 -20.2554 17.1436 -6.2081 7.1250 -0.0000 -0.0000 5.0493 -11.8325 3.9223
9.8095 17.1820 -13.0448 -7.3637 38.6849 -9.8864 0.0000 0.0000 0.0000 -18.3630 -9.2918 -27.6356 6.5881 14.9750 47.2987 0.7154 0.1921 -16.0553 0.5154 4.6016 12.7756 0.0000 0.0000 0.0000 9.6863 -1.7466 -31.1113 -8.7187 -16.6232 55.1121 0.9685 17.3932 9.9218 -0.2513 3.2257 -8.9077 -7.3496 7.0399 13.8925 -3.3190 8.4379 6.3208 -0.6970 4.1914 -1.5274 -17.5650 -19.6728 -1.3962 27.1523 -28.6152 3.1446 7.8870 -13.7268 7.9428 0.0000 0.0000 0.0000 -61.1963 16.8825 -1.6271 22.9355 -34.0182 -7.1022 -0.0000 0.0000 -3.8437 11.9497 19.0762 3.9568 -7.1250 0.0000 -0.0000 -15.8525 48.7840 -1.5144 0.0000 0.0000 0.0000 31.3512 28.1541 -66.3355 -6.4094 10.9432 -0.6146 0.0000 0.0000 21.6741 -19.8635 17.0807 -6.0572 7.1250 -0.0000 -0.0000 5.3056 -11.9461 4.1106
9.8184 17.1638 -12.9419 -6.8795 38.2560 -9.7644 0.0000 0.0000 0.0000 -18.5517 -8.5280 -27.5135 6.6960 15.0705 47.7150 0.7541 -0.0528 -16.3966 0.4440 4.2754 11.8528 0.0000 0.0000 0.0000 8.7214 -1.3851 -31.5978 -8.9676 -16.7868 55.9779 1.0451 18.1652 11.0473 -0.0622 1.6088 -4.4256 -7.5220 7.0456 13.9970 -3.4422 8.4268 6.4929 -0.7305 4.1822 -1.4008 -17.5097 -19.5788 -1.3835 27.2152 -28.3288 2.4117 7.9768 -13.6311 7.6467 0.0000 0.0000 0.0000 -60.8444 16.5238 -1.8949 22.2973 -33.3114 -6.7484 -0.0000 0.0000 -2.3083 10.7645 18.8886 3.5219 -7.1250 0.0000 -0.0000 -16.8810 48.4324 -1.4680 0.0000 0.0000 0.0000 31.0955 28.5241 -66.5776 -6.4395 10.9932 -0.6203 0.0000 0.0000 21.9441 -19.6437 17.1535 -6.0096 7.1250 -0.0000 -0.0000 5.4551 -11.8966 4.2331
9.8304 17.1412 -12.8262 -6.1825 37.9891 -9.4664 0.0000 0.0000 0.0000 -18.9383 -7.9108 -27.3689 6.7959 15.1576 48.0980 0.7924 -0.1627 -16.7714 0.3477 3.7889 10.4835 0.0000 0.0000 0.0000 7.5813 -1.1811 -31.9635 -9.1085 -16.8770 56.4645 1.1959 19.1690 10.5813 -0.0876 1.9089 -5.2539 -8.0087 7.0620 13.7643 -3.4846 8.4487 6.8364 -0.4644 4.1737 -0.9662 -18.0372 -19.5633 -1.3350 27.8093 -28.2226 1.6133 8.2542 -13.6170 7.5575 0.0000 -0.0000 0.0000 -59.1225 17.9023 1.2452 22.9320 -34.0144 -7.1002 -0.0000 0.0000 -4.9120 9.0127 20.5562 3.1876 -7.1250 0.0000 -0.0000 -19.2112 49.7697 -2.3358 0.0000 -0.0000 0.0000 30.4648 28.8887 -66.9836 -6.4118 10.9472 -0.6150 0.0000 0.0000 22.5377 -19.5366 17.3111 -6.0273 7.1250 -0.0000 -0.0000 5.5341 -11.7450 4.3124
9.8433 17.1213 -12.7136 -5.5630 37.9080 -9.0599 0.0000 0.0000 0.0000 -19.2540 -7.5065 -27.3871 6.8967 15.2443 48.4825 0.8265 -0.3635 -17.0647 0.2565 3.2587 8.9998 0.0000 0.0000 0.0000 6.4509 -1.2099 -32.3828 -9.1213 -16.8851 56.5087 1.2630 19.4849 9.1389 -0.2603 3.2824 -9.0659 -8.4639 7.0089 13.5742 -3.5081 8.3638 7.0046 -0.1972 4.1149 -0.7337 -17.7807 -19.6198 -1.4756 27.4623 -28.1174 1.0886 8.1323 -13.5890 7.2860 -0.0000 0.0000 0.0000 -59.7277 16.1832 -1.1400 21.9250 -32.8922 -6.5451 -0.0000 0.0000 -2.5557 6.3554 21.5552 2.3433 -7.1250 0.0000 -0.0000 -22.1566 50.2986 -3.0234 -0.0000 0.0000 0.0000 30.4970 28.6461 -62.2118 -6.7972 11.5850 -0.6903 0.0000 0.0000 18.7276 -19.7291 17.1552 -6.0383 7.1250 -0.0000 -0.0000 5.3986 -11.8845 4.1902
9.8550 17.1079 -12.6091 -5.0357 37.8518 -8.6522 0.0000 0.0000 0.0000 -19.4832 -7.0669 -27.5508 7.0058 15.3368 48.8962 0.8513 -0.6617 -17.2270 0.1956 2.8477 7.8551 0.0000 0.0000 0.0000 5.3999 -1.2206 -32.6609 -8.9877 -16.7998 56.0476 1.1385 18.5027 7.8989 -0.1746 2.6920 -7.4224 -8.7002 6.9200 13.5738 -3.6312 8.2108 6.9380 -0.1789 4.0379 -0.8055 -17.7562 -19.5320 -1.0719 27.5068 -27.9375 0.5930 8.2358 -13.5629 7.0279 0.0000 -0.0000 0.0000 -59.5822 15.3354 -2.5908 21.2178 -32.0817 -6.1652 -0.0000 0.0000 -1.0484 4.6950 21.9988 1.7621 -7.1250 0.0000 -0.0000 -23.9197 50.4483 -3.3803 0.0000 -0.0000 0.0000 30.6931 28.4377 -59.3808 -7.0223 11.9560 -0.7363 0.0000 0.0000 16.6976 -20.0930 17.6802 -6.3394 7.1250 -0.0000 -0.0000 5.1870 -11.2911 4.0882
9.8661 17.1014 -12.4888 -4.7375 37.8173 -8.4932 0.0000 0.0000 0.0000 -19.4924 -6.5284 -27.5761 7.1260 15.4371 49.3493 0.8774 -1.1166 -17.3600 0.1568 2.5517 7.0329 0.0000 0.0000 0.0000 4.6401 -1.1770 -32.4558 -8.7084 -16.6164 55.0761 0.9849 17.2512 6.0623 -0.0508 1.4551 -4.0021 -8.8666 6.7617 13.5222 -3.7123 7.9841 6.8920 -0.1335 3.9235 -0.8214 -18.3742 -19.2732 -0.5398 28.1974 -27.6761 0.3401 8.6438 -13.4875 7.0249 0.0000 -0.0000 0.0000 -59.0581 14.9068 -3.4269 20.5919 -31.3489 -5.8362 -0.0000 -0.0000 0.0743 4.1740 22.2614 1.5837 -7.1250 0.0000 -0.0000 -24.5394 50.6058 -3.5766 0.0000 -0.0000 0.0000 30.5474 29.2314 -63.7639 -6.8139 11.6125 -0.6937 0.0000 0.0000 21.8193 -20.0253 18.5901 -6.6276 7.1250 -0.0000 -0.0000 5.2859 -10.3491 4.2690
9.8719 17.0944 -12.3541 -5.1688 37.9567 -8.8911 0.0000 0.0000 0.0000 -18.8435 -6.1574 -27.3981 7.2496 15.5385 49.8122 0.9088 -1.7199 -17.5172 0.1174 2.2093 6.0845 0.0000 0.0000 0.0000 4.5869 -1.1759 -31.7366 -8.2881 -16.3272 53.5940 0.8195 16.0879 2.6717 -0.1783 2.7202 -7.5008 -8.5944 6.5379 13.5256 -3.5759 7.7284 6.9434 -0.0898 3.7972 -0.7424 -18.2923 -19.1534 -0.6245 28.0203 -27.4827 0.4089 8.6190 -13.3883 6.9706 0.0000 -0.0000 0.0000 -58.3680 14.1674 -4.0011 19.8917 -30.5116 -5.4762 -0.0000 -0.0000 0.7254 4.3553 22.6483 1.6799 -7.1250 0.0000 -0.0000 -24.5806 50.9854 -3.8224 0.0000 -0.0000 0.0000 30.3109 30.1078 -69.2872 -6.6523 11.3456 -0.6615 0.0000 0.0000 27.9661 -19.6094 20.3009 -7.0465 7.1250 -0.0000 -0.0000 5.6670 -8.6248 4.7771
9.8757 17.0865 -12.2210 -5.7969 38.1765 -9.4456 0.0000 0.0000 0.0000 -18.0307 -5.9275 -27.1654 7.3677 15.6338 50.2516 0.9437 -2.2188 -17.7458 0.0821 1.8484 5.0868 0.0000 0.0000 0.0000 4.7171 -1.2130 -30.7426 -7.7458 -15.9291 51.6420 0.5417 14.1027 -0.8746 -0.4062 4.0916 -11.3344 -8.0885 6.3528 13.6777 -3.4518 7.5353 7.0020 -0.2112 3.7099 -0.7114 -17.6596 -19.2184 -0.7526 27.5007 -27.4815 0.3856 8.3729 -13.3852 6.7938 -0.0000 -0.0000 0.0000 -56.2706 15.8247 -0.4899 20.7307 -31.5127 -5.9086 -0.0000 0.0000 -2.9314 4.8016 23.9119 1.9501 -7.1250 0.0000 -0.0000 -24.8739 52.2030 -4.6465 -0.0000 -0.0000 0.0000 30.4543 29.9295 -67.4932 -6.6886 11.4057 -0.6687 0.0000 0.0000 26.3695 -19.5062 22.2339 -7.6345 7.1250 -0.0000 -0.0000 5.8747 -6.6377 5.1843
9.8814 17.0905 -12.0847 -5.6753 38.5187 -9.5698 0.0000 0.0000 0.0000 -17.9140 -5.8479 -26.7626 7.4649 15.7112 50.6116 0.9922 -2.5998 -18.1321 0.0866 1.8976 5.2227 0.0000 0.0000 0.0000 4.1414 -1.2244 -29.5953 -7.1113 -15.4249 49.2939 0.2529 11.4089 -3.4797 -0.3343 3.7158 -10.2785 -8.1455 6.2398 13.8696 -3.5661 7.3534 6.9462 -0.2941 3.6254 -0.8530 -17.4073 -19.1941 -0.3203 27.5212 -27.5179 0.4632 8.3880 -13.4346 6.7198 -0.0000 -0.0000 0.0000 -56.5863 14.2369 -2.9645 20.0215 -30.6682 -5.5423 -0.0000 -0.0000 0.1859 3.9115 24.1510 1.6024 -7.1250 0.0000 -0.0000 -25.8479 52.2678 -4.8919 -0.0000 -0.0000 0.0000 31.3665 28.9704 -60.3665 -7.0860 12.0608 -0.7495 0.0000 0.0000 19.6784 -19.6973 21.5740 -7.4991 7.1250 -0.0000 -0.0000 5.7031 -7.2920 4.9584
